<svg xmlns="http://www.w3.org/2000/svg" viewBox="0 0 1000 400" style="enable-background:new 0 0 1000 400" xml:space="preserve"><path style="fill-rule:evenodd;clip-rule:evenodd;fill:#0058ab" d="M999.9 400H0V0h1000v400z"/><path d="M20 200c0 98.3 201.2 180 480.1 180C779 380 980 298.3 980 200S778.8 20 500.1 20C221.3 20 20 101.7 20 200z" style="fill-rule:evenodd;clip-rule:evenodd;fill:#fbd914"/><path d="M464.5 260c3.2 4.5 6.6 8.7 10.6 12.5H366.9c0-4.2-4.2-12.7-8.7-19.4-4.6-6.7-29.4-43.5-29.4-43.5V260c0 4.2 0 8.3 2.1 12.5h-90.2c2.2-4.2 2.2-8.3 2.2-12.5V140c0-4.2 0-8.3-2.2-12.5h90.2c-2.1 4.2-2.1 8.3-2.1 12.5v52.5s28.8-36.7 35.4-45.2c5-6.4 11.2-15.5 11.2-19.7h94c-6.5 4.2-13.6 11.8-19.5 18.7-5.2 6.2-34.4 41-34.4 41s43.2 64.5 49 72.7zm28.4-120v120c0 4.2 0 8.3-2.1 12.5h174v-40.3c-4.3 2.1-8.5 2.1-12.8 2.1h-73.2v-19h70.4v-30.5h-70.4v-19.2H652c4.3 0 8.5 0 12.8 2v-40.2h-174c2.1 4.4 2.1 8.4 2.1 12.6zm412.9 120c1.4 4.6 3.9 8.8 7 12.5h-94.3c.4-4.2-1.1-8.3-2.9-12.5 0 0-1.4-3.4-3.4-8.3l-.9-2.1H757l-.9 2.2s-1.6 4.1-3 8.3c-1.4 4.2-3 8.3-2.4 12.5h-74.4c3-3.7 5.3-7.9 6.7-12.5l44.6-120c1.6-4.2 3.2-8.3 2.6-12.5h125.7c-1.1 4.2 1.1 8.3 2.7 12.5 3.8 9.1 44 111.8 47.2 119.9zm-106.4-40.9-13.2-33.6c-1.1-3.1-2.2-6.3-2.9-9.5-.6 3.2-1.4 6.4-2.6 9.5-.4 1.4-6 16.1-12.5 33.6h31.2zM198 127.6h-98c2.2 4.2 2.2 8.3 2.2 12.5v120c0 4.2 0 8.3-2.2 12.5h98c-2.1-4.2-2.1-8.3-2.1-12.5V140c0-4.2 0-8.2 2.1-12.4zM875.7 139c-.4-10.2 7.7-18.7 18.2-19h1.3c10.6-.1 19.3 8 19.5 18.3v.7c.3 10.5-8.2 19.3-19.1 19.6-10.8.3-19.8-8-20.1-18.6.2-.3.2-.7.2-1zm3.9 0c0 8.4 7 15.3 15.6 15.3s15.6-6.9 15.6-15.3-7-15.2-15.6-15.2c-8.3-.3-15.3 6-15.6 14.1v1.1zm11.7 11.4h-3.4v-22.9h8.7c4.2.1 7.3 3.4 7.3 7.4 0 2.8-1.6 5.3-4.2 6.7l5 8.8h-3.9l-4.6-8.1h-5c.1-.1.1 8.1.1 8.1zm0-11.4h4.7c2.3.1 4.3-1.5 4.3-3.8 0-2.2-1.6-4.2-3.9-4.2h-5.2v8z" style="fill:#0058a3"/></svg>
